<svg xmlns="http://www.w3.org/2000/svg" xmlns:xlink="http://www.w3.org/1999/xlink" width="500" zoomAndPan="magnify" viewBox="0 0 375 374.999991" height="500" preserveAspectRatio="xMidYMid meet" version="1.0"><defs><g/></defs><path fill="#000000" d="M 187.5 0 C 83.945312 0 0 83.945312 0 187.5 C 0 291.054688 83.945312 375 187.5 375 C 291.054688 375 375 291.054688 375 187.5 C 375 83.945312 291.054688 0 187.5 0 " fill-opacity="1" fill-rule="nonzero"/><g fill="#e5d9c5" fill-opacity="1"><g transform="translate(99.392124, 274.96993)"><g><path d="M 81.847656 -175.207031 L 12.265625 -175.207031 L 12.265625 0 L 81.847656 0 C 139.664062 0 168.699219 -43.550781 168.699219 -87.355469 C 168.699219 -131.15625 139.664062 -175.207031 81.847656 -175.207031 Z M 81.847656 -40.796875 L 54.816406 -40.796875 L 54.816406 -134.660156 L 81.847656 -134.660156 C 111.382812 -134.660156 126.398438 -110.382812 126.398438 -87.355469 C 126.398438 -64.328125 111.382812 -40.796875 81.847656 -40.796875 Z M 81.847656 -40.796875 "/></g></g></g></svg>