<svg width="235" height="48" viewBox="0 0 235 48" fill="none" xmlns="http://www.w3.org/2000/svg">
<path d="M57.3921 37.6595H62.784V21.0517H66.4671V16.7011H62.784V15.831C62.784 13.4855 63.6573 12.6532 66.2393 12.7289V8.26482C60.3159 8.11349 57.3921 10.4968 57.3921 15.6419V16.7011H55V21.0517H57.3921V37.6595Z" fill="#0C083D"/>
<path d="M69.5324 37.6595H74.8483V16.7011H69.5324V37.6595ZM72.2283 14.2043C74.0888 14.2043 75.4938 12.8424 75.4938 11.1021C75.4938 9.36192 74.0888 8 72.2283 8C70.3297 8 68.9628 9.36192 68.9628 11.1021C68.9628 12.8424 70.3297 14.2043 72.2283 14.2043Z" fill="#0C083D"/>
<path d="M85.0365 27.2182C85.0365 23.1702 86.9351 21.9596 90.0866 21.9596H91.4915V16.3985C88.5678 16.3985 86.3655 17.7982 85.0365 19.9546V16.7011H79.7207V37.6595H85.0365V27.2182Z" fill="#0C083D"/>
<path d="M103.729 20.7112C106.463 20.7112 108.666 22.4514 108.741 25.2131H98.7552C99.1729 22.338 101.185 20.7112 103.729 20.7112ZM113.716 31.0769H107.982C107.299 32.4767 106.046 33.6116 103.767 33.6116C101.109 33.6116 98.983 31.8714 98.7172 28.7692H114.095C114.209 28.0883 114.247 27.4073 114.247 26.7264C114.247 20.4842 109.957 16.3607 103.881 16.3607C97.6541 16.3607 93.3254 20.5599 93.3254 27.1803C93.3254 33.7629 97.768 38 103.881 38C109.083 38 112.577 34.9357 113.716 31.0769Z" fill="#0C083D"/>
<path d="M118.317 37.6595H123.709V21.0517H127.392V16.7011H123.709V15.831C123.709 13.4855 124.582 12.6532 127.164 12.7289V8.26482C121.241 8.11349 118.317 10.4968 118.317 15.6419V16.7011H115.925V21.0517H118.317V37.6595Z" fill="#0C083D"/>
<path d="M130.457 37.6595H135.773V9.66457H130.457V37.6595Z" fill="#0C083D"/>
<path d="M140.646 37.6595H145.962V16.7011H140.646V37.6595ZM143.342 14.2043C145.202 14.2043 146.607 12.8424 146.607 11.1021C146.607 9.36192 145.202 8 143.342 8C141.443 8 140.076 9.36192 140.076 11.1021C140.076 12.8424 141.443 14.2043 143.342 14.2043Z" fill="#0C083D"/>
<path d="M159.871 20.7112C162.605 20.7112 164.807 22.4514 164.883 25.2131H154.897C155.315 22.338 157.327 20.7112 159.871 20.7112ZM169.857 31.0769H164.124C163.44 32.4767 162.187 33.6116 159.909 33.6116C157.251 33.6116 155.125 31.8714 154.859 28.7692H170.237C170.351 28.0883 170.389 27.4073 170.389 26.7264C170.389 20.4842 166.098 16.3607 160.023 16.3607C153.796 16.3607 149.467 20.5599 149.467 27.1803C149.467 33.7629 153.91 38 160.023 38C165.225 38 168.718 34.9357 169.857 31.0769Z" fill="#0C083D"/>
<path d="M190.217 31.6822C190.065 24.0025 178.408 26.3859 178.408 22.5649C178.408 21.3544 179.433 20.5599 181.407 20.5599C183.496 20.5599 184.787 21.657 184.939 23.2837H190.027C189.723 19.1223 186.647 16.3607 181.559 16.3607C176.357 16.3607 173.244 19.1602 173.244 22.6406C173.244 30.3203 185.129 27.9369 185.129 31.6822C185.129 32.8928 183.989 33.8386 181.901 33.8386C179.775 33.8386 178.294 32.628 178.104 31.0391H172.75C172.978 34.9357 176.661 38 181.939 38C187.065 38 190.217 35.2762 190.217 31.6822Z" fill="#0C083D"/>
<path d="M199.782 34.8222C199.782 33.082 198.415 31.7201 196.555 31.7201C194.618 31.7201 193.251 33.082 193.251 34.8222C193.251 36.5624 194.618 37.9243 196.555 37.9243C198.415 37.9243 199.782 36.5624 199.782 34.8222Z" fill="#0C083D"/>
<path d="M202.317 27.1047C202.317 33.6494 206.57 38 211.886 38C215.227 38 217.62 36.4111 218.873 34.5952V37.6595H224.226V16.7011H218.873V19.6898C217.62 17.9496 215.303 16.3607 211.924 16.3607C206.57 16.3607 202.317 20.5599 202.317 27.1047ZM218.873 27.1803C218.873 31.1526 216.215 33.3468 213.291 33.3468C210.443 33.3468 207.747 31.0769 207.747 27.1047C207.747 23.1324 210.443 21.0139 213.291 21.0139C216.215 21.0139 218.873 23.2081 218.873 27.1803Z" fill="#0C083D"/>
<path d="M229.039 37.6595H234.355V16.7011H229.039V37.6595ZM231.735 14.2043C233.595 14.2043 235 12.8424 235 11.1021C235 9.36192 233.595 8 231.735 8C229.836 8 228.469 9.36192 228.469 11.1021C228.469 12.8424 229.836 14.2043 231.735 14.2043Z" fill="#0C083D"/>
<path d="M15.78 0H0V15.664H15.78V0Z" fill="url(#paint0_linear_20_620)"/>
<path d="M34.4721 18.9101H18.6921V34.5741H34.4721V18.9101Z" fill="url(#paint1_linear_20_620)"/>
<path d="M34.4722 0H18.6921V15.664H48V13.4257C47.9997 9.86484 46.5744 6.45002 44.0377 3.93226C41.501 1.41449 38.0607 -1.79765e-08 34.4735 0H34.4722Z" fill="url(#paint2_linear_20_620)"/>
<path d="M0 18.9103V34.5743C0.000360452 38.1351 1.42563 41.55 3.96231 44.0678C6.49898 46.5856 9.93929 48 13.5265 48H15.78V18.9103H0Z" fill="url(#paint3_linear_20_620)"/>
<path opacity="0.18" d="M0 -1.14441e-05L15.78 15.664H0V-1.14441e-05Z" fill="url(#paint4_linear_20_620)"/>
<path opacity="0.18" d="M18.6921 18.9101L34.4722 34.574H18.6921V18.9101Z" fill="url(#paint5_linear_20_620)"/>
<path opacity="0.18" d="M0 34.5743C0.000360452 38.1351 1.42563 41.55 3.96231 44.0678C6.49898 46.5856 9.93929 48 13.5265 48H15.78V18.9103L0 34.5743Z" fill="url(#paint6_linear_20_620)"/>
<path opacity="0.18" d="M34.4735 0C38.0607 -1.79763e-08 41.501 1.41449 44.0377 3.93226C46.5744 6.45002 47.9997 9.86484 48 13.4257V15.664H18.6921L34.4735 0Z" fill="url(#paint7_linear_20_620)"/>
<defs>
<linearGradient id="paint0_linear_20_620" x1="38.5979" y1="39.6299" x2="-27.7324" y2="-30.0627" gradientUnits="userSpaceOnUse">
<stop stop-color="#E82A73"/>
<stop offset="0.113" stop-color="#DE2D7A"/>
<stop offset="0.3" stop-color="#C5388F"/>
<stop offset="0.54" stop-color="#9B4AB0"/>
<stop offset="0.818" stop-color="#6262DE"/>
<stop offset="0.994" stop-color="#3B73FF"/>
</linearGradient>
<linearGradient id="paint1_linear_20_620" x1="38.8274" y1="39.4142" x2="-27.5028" y2="-30.2783" gradientUnits="userSpaceOnUse">
<stop stop-color="#FF3C82"/>
<stop offset="0.103" stop-color="#F53E88"/>
<stop offset="0.274" stop-color="#DC4598"/>
<stop offset="0.492" stop-color="#B251B2"/>
<stop offset="0.745" stop-color="#7961D7"/>
<stop offset="0.994" stop-color="#3B73FF"/>
</linearGradient>
<linearGradient id="paint2_linear_20_620" x1="49.8464" y1="28.9313" x2="27.3714" y2="-52.5173" gradientUnits="userSpaceOnUse">
<stop stop-color="#E82A73"/>
<stop offset="0.113" stop-color="#DE2D7A"/>
<stop offset="0.3" stop-color="#C5388F"/>
<stop offset="0.54" stop-color="#9B4AB0"/>
<stop offset="0.818" stop-color="#6262DE"/>
<stop offset="0.994" stop-color="#3B73FF"/>
</linearGradient>
<linearGradient id="paint3_linear_20_620" x1="27.7255" y1="49.9781" x2="-52.7342" y2="25.4657" gradientUnits="userSpaceOnUse">
<stop stop-color="#E82A73"/>
<stop offset="0.113" stop-color="#DE2D7A"/>
<stop offset="0.3" stop-color="#C5388F"/>
<stop offset="0.54" stop-color="#9B4AB0"/>
<stop offset="0.818" stop-color="#6262DE"/>
<stop offset="0.994" stop-color="#3B73FF"/>
</linearGradient>
<linearGradient id="paint4_linear_20_620" x1="-7.71643" y1="-19.5643" x2="14.8206" y2="32.0771" gradientUnits="userSpaceOnUse">
<stop stop-color="#E82A73"/>
<stop offset="0.114" stop-color="#DE286E"/>
<stop offset="0.303" stop-color="#C52361"/>
<stop offset="0.544" stop-color="#9B1A4D"/>
<stop offset="0.825" stop-color="#620F30"/>
<stop offset="0.994" stop-color="#3D081E"/>
</linearGradient>
<linearGradient id="paint5_linear_20_620" x1="10.9757" y1="-0.654216" x2="33.5127" y2="50.9872" gradientUnits="userSpaceOnUse">
<stop stop-color="#E82A73"/>
<stop offset="0.114" stop-color="#DE286E"/>
<stop offset="0.303" stop-color="#C52361"/>
<stop offset="0.544" stop-color="#9B1A4D"/>
<stop offset="0.825" stop-color="#620F30"/>
<stop offset="0.994" stop-color="#3D081E"/>
</linearGradient>
<linearGradient id="paint6_linear_20_620" x1="-5.23897" y1="-1.48152" x2="45.8029" y2="32.4273" gradientUnits="userSpaceOnUse">
<stop stop-color="#E82A73"/>
<stop offset="0.114" stop-color="#DE286E"/>
<stop offset="0.303" stop-color="#C52361"/>
<stop offset="0.544" stop-color="#9B1A4D"/>
<stop offset="0.825" stop-color="#620F30"/>
<stop offset="0.994" stop-color="#3D081E"/>
</linearGradient>
<linearGradient id="paint7_linear_20_620" x1="-1117.34" y1="1102.01" x2="-1108.59" y2="1171.06" gradientUnits="userSpaceOnUse">
<stop stop-color="#E82A73"/>
<stop offset="0.114" stop-color="#DE286E"/>
<stop offset="0.303" stop-color="#C52361"/>
<stop offset="0.544" stop-color="#9B1A4D"/>
<stop offset="0.825" stop-color="#620F30"/>
<stop offset="0.994" stop-color="#3D081E"/>
</linearGradient>
</defs>
</svg>
