<svg width="163" height="56" viewBox="0 0 163 56" fill="none" xmlns="http://www.w3.org/2000/svg">
<path d="M55.8 5.8V31H51V20.4H40.4V31H35.6V5.8H40.4V15.8H51V5.8H55.8ZM65.1906 31H60.5906V12.6H65.1906V31ZM62.9906 10.2C62.2973 10.2 61.684 9.94667 61.1506 9.44C60.644 8.90667 60.3906 8.29333 60.3906 7.6C60.3906 6.90667 60.644 6.30667 61.1506 5.8C61.684 5.26666 62.2973 5 62.9906 5C63.684 5 64.284 5.26666 64.7906 5.8C65.324 6.30667 65.5906 6.90667 65.5906 7.6C65.5906 8.29333 65.324 8.90667 64.7906 9.44C64.284 9.94667 63.684 10.2 62.9906 10.2ZM78.175 12.4C78.3883 12.4 78.575 12.4133 78.735 12.44C78.895 12.4667 79.0417 12.4933 79.175 12.52C79.3083 12.5467 79.4417 12.5733 79.575 12.6V17.4C79.4417 17.3733 79.295 17.3467 79.135 17.32C79.0017 17.2933 78.8283 17.2667 78.615 17.24C78.4283 17.2133 78.215 17.2 77.975 17.2C76.855 17.2 75.935 17.5733 75.215 18.32C74.5217 19.04 74.175 20 74.175 21.2V31H69.575V12.6H72.975L73.775 14.6C74.095 14.2 74.4817 13.84 74.935 13.52C75.3083 13.2267 75.7617 12.9733 76.295 12.76C76.855 12.52 77.4817 12.4 78.175 12.4ZM98.7875 25.4C98.5475 26.0933 98.1742 26.7867 97.6675 27.48C97.1875 28.1733 96.5875 28.8 95.8675 29.36C95.1742 29.8933 94.3742 30.3333 93.4675 30.68C92.5875 31.0267 91.6275 31.2 90.5875 31.2C89.3342 31.2 88.1475 30.96 87.0275 30.48C85.9342 29.9733 84.9608 29.2933 84.1075 28.44C83.2808 27.5867 82.6142 26.6 82.1075 25.48C81.6275 24.3333 81.3875 23.1067 81.3875 21.8C81.3875 20.4933 81.6275 19.28 82.1075 18.16C82.6142 17.0133 83.2808 16.0133 84.1075 15.16C84.9608 14.3067 85.9342 13.64 87.0275 13.16C88.1475 12.6533 89.3342 12.4 90.5875 12.4C91.7875 12.4 92.9208 12.6267 93.9875 13.08C95.0542 13.5333 95.9875 14.1733 96.7875 15C97.5875 15.8267 98.2142 16.8267 98.6675 18C99.1475 19.1467 99.3875 20.4133 99.3875 21.8C99.3875 22.0133 99.3742 22.2267 99.3475 22.44C99.3208 22.6267 99.2942 22.8133 99.2675 23C99.2408 23.2133 99.2142 23.4133 99.1875 23.6H86.3875C86.6008 24.5067 87.0542 25.2667 87.7475 25.88C88.4408 26.4933 89.3875 26.8 90.5875 26.8C91.2008 26.8 91.7075 26.7333 92.1075 26.6C92.5342 26.4667 92.8942 26.3067 93.1875 26.12C93.5075 25.9067 93.7742 25.6667 93.9875 25.4H98.7875ZM90.5875 16.8C89.3875 16.8 88.4008 17.1467 87.6275 17.84C86.8808 18.5333 86.4008 19.3867 86.1875 20.4H94.9875C94.7742 19.3867 94.2808 18.5333 93.5075 17.84C92.7608 17.1467 91.7875 16.8 90.5875 16.8ZM112.178 31.2C111.378 31.2 110.658 31.1067 110.018 30.92C109.378 30.7067 108.831 30.4667 108.378 30.2C107.845 29.9067 107.378 29.5733 106.978 29.2L106.178 31H102.778V5.8H107.378V14.2C107.751 13.88 108.178 13.5867 108.658 13.32C109.085 13.1067 109.578 12.9067 110.138 12.72C110.725 12.5067 111.405 12.4 112.178 12.4C113.325 12.4 114.418 12.64 115.458 13.12C116.498 13.5733 117.405 14.2267 118.178 15.08C118.978 15.9067 119.605 16.8933 120.058 18.04C120.538 19.1867 120.778 20.44 120.778 21.8C120.778 23.16 120.538 24.4133 120.058 25.56C119.605 26.7067 118.978 27.7067 118.178 28.56C117.405 29.3867 116.498 30.04 115.458 30.52C114.418 30.9733 113.325 31.2 112.178 31.2ZM106.978 21.8C106.978 23.32 107.418 24.5333 108.298 25.44C109.178 26.3467 110.271 26.8 111.578 26.8C112.885 26.8 113.978 26.3467 114.858 25.44C115.738 24.5333 116.178 23.32 116.178 21.8C116.178 20.28 115.738 19.0667 114.858 18.16C113.978 17.2533 112.885 16.8 111.578 16.8C110.271 16.8 109.178 17.2533 108.298 18.16C107.418 19.0667 106.978 20.28 106.978 21.8ZM131.784 12.4C132.824 12.4 133.784 12.5867 134.664 12.96C135.544 13.3067 136.304 13.8 136.944 14.44C137.584 15.08 138.078 15.84 138.424 16.72C138.798 17.6 138.984 18.56 138.984 19.6V31H135.584L134.784 29.2C134.358 29.5733 133.891 29.9067 133.384 30.2C132.931 30.4667 132.384 30.7067 131.744 30.92C131.104 31.1067 130.384 31.2 129.584 31.2C127.584 31.2 126.051 30.72 124.984 29.76C123.918 28.7733 123.384 27.52 123.384 26C123.384 25.0933 123.558 24.2667 123.904 23.52C124.278 22.7467 124.891 22.0933 125.744 21.56C126.598 21 127.718 20.5733 129.104 20.28C130.518 19.96 132.278 19.8 134.384 19.8C134.384 18.7867 134.104 18 133.544 17.44C133.011 16.88 132.291 16.6 131.384 16.6C130.771 16.6 130.278 16.7067 129.904 16.92C129.558 17.1333 129.278 17.36 129.064 17.6C128.824 17.8933 128.664 18.2267 128.584 18.6H123.984C124.091 17.7467 124.331 16.9467 124.704 16.2C125.104 15.4533 125.638 14.8 126.304 14.24C126.971 13.68 127.758 13.24 128.664 12.92C129.598 12.5733 130.638 12.4 131.784 12.4ZM130.384 27.6C131.584 27.6 132.544 27.2533 133.264 26.56C134.011 25.84 134.384 24.92 134.384 23.8V23C133.024 23 131.931 23.0667 131.104 23.2C130.278 23.3067 129.624 23.48 129.144 23.72C128.691 23.9333 128.384 24.2 128.224 24.52C128.064 24.84 127.984 25.2 127.984 25.6C127.984 26.1067 128.211 26.5733 128.664 27C129.118 27.4 129.691 27.6 130.384 27.6ZM141.169 12.6H145.969L150.569 24.6L154.769 12.6H159.569C158.262 15.96 157.075 19 156.009 21.72C155.555 22.8933 155.102 24.04 154.649 25.16C154.222 26.28 153.835 27.3067 153.489 28.24C153.142 29.1467 152.849 29.9067 152.609 30.52C152.369 31.1333 152.222 31.4933 152.169 31.6C151.715 32.6933 151.262 33.6133 150.809 34.36C150.382 35.1333 149.915 35.76 149.409 36.24C148.902 36.72 148.355 37.0667 147.769 37.28C147.182 37.4933 146.515 37.6 145.769 37.6C145.555 37.6 145.342 37.5867 145.129 37.56C144.942 37.56 144.782 37.5467 144.649 37.52C144.462 37.4933 144.302 37.4533 144.169 37.4V33.6C145.182 33.6 145.955 33.3733 146.489 32.92C147.049 32.4667 147.475 31.8933 147.769 31.2L148.169 30.2L141.169 12.6Z" fill="#232735"/>
<path fill-rule="evenodd" clip-rule="evenodd" d="M14.5 29C16.9853 29 19 26.9853 19 24.5C19 22.0147 16.9853 20 14.5 20C12.0147 20 10 22.0147 10 24.5C10 26.9853 12.0147 29 14.5 29Z" fill="#FEAA30"/>
<path fill-rule="evenodd" clip-rule="evenodd" d="M14.5 19C16.9853 19 19 16.9853 19 14.5C19 12.0147 16.9853 10 14.5 10C12.0147 10 10 12.0147 10 14.5C10 16.9853 12.0147 19 14.5 19Z" fill="#885FFF"/>
<path fill-rule="evenodd" clip-rule="evenodd" d="M4.5 29C6.98528 29 9 26.9853 9 24.5C9 22.0147 6.98528 20 4.5 20C2.01472 20 0 22.0147 0 24.5C0 26.9853 2.01472 29 4.5 29Z" fill="#5FB2FF"/>
<path fill-rule="evenodd" clip-rule="evenodd" d="M4.5 19C6.98528 19 9 16.9853 9 14.5C9 12.0147 6.98528 10 4.5 10C2.01472 10 0 12.0147 0 14.5C0 16.9853 2.01472 19 4.5 19Z" fill="#232735"/>
<path d="M133.762 53V44.4688H136.75C137.785 44.4688 138.57 44.668 139.105 45.0664C139.641 45.4609 139.908 46.041 139.908 46.8066C139.908 47.2246 139.801 47.5938 139.586 47.9141C139.371 48.2305 139.072 48.4629 138.689 48.6113C139.127 48.7207 139.471 48.9414 139.721 49.2734C139.975 49.6055 140.102 50.0117 140.102 50.4922C140.102 51.3125 139.84 51.9336 139.316 52.3555C138.793 52.7773 138.047 52.9922 137.078 53H133.762ZM135.52 49.2852V51.5879H137.025C137.439 51.5879 137.762 51.4902 137.992 51.2949C138.227 51.0957 138.344 50.8223 138.344 50.4746C138.344 49.6934 137.939 49.2969 137.131 49.2852H135.52ZM135.52 48.043H136.82C137.707 48.0273 138.15 47.6738 138.15 46.9824C138.15 46.5957 138.037 46.3184 137.811 46.1504C137.588 45.9785 137.234 45.8926 136.75 45.8926H135.52V48.043ZM146.559 49.3027H143.184V51.5879H147.145V53H141.426V44.4688H147.133V45.8926H143.184V47.9258H146.559V49.3027ZM154.715 45.8926H152.102V53H150.344V45.8926H147.766V44.4688H154.715V45.8926ZM159.836 51.2422H156.754L156.168 53H154.299L157.475 44.4688H159.104L162.297 53H160.428L159.836 51.2422ZM157.229 49.8184H159.361L158.289 46.625L157.229 49.8184Z" fill="#FEAA30"/>
</svg>
